<mxfile host="app.diagrams.net" modified="2023-07-30T17:55:04.581Z" agent="Mozilla/5.0 (Windows NT 10.0; Win64; x64) AppleWebKit/537.36 (KHTML, like Gecko) Chrome/115.0.0.0 Safari/537.36 Edg/115.0.1901.188" etag="Bf1tfHpRiWfMLGYVVxkT" version="21.6.6" type="device">
  <diagram name="Page-1" id="W2UjbRrGLwGH2tQvkGUd">
    <mxGraphModel dx="1266" dy="746" grid="1" gridSize="10" guides="1" tooltips="1" connect="1" arrows="1" fold="1" page="1" pageScale="1" pageWidth="850" pageHeight="1100" math="0" shadow="0">
      <root>
        <mxCell id="0" />
        <mxCell id="1" parent="0" />
        <mxCell id="Gud9ZkbKeuAeR6ojQV5B-1" value="" style="shape=image;verticalLabelPosition=bottom;labelBackgroundColor=default;verticalAlign=top;aspect=fixed;imageAspect=0;image=data:image/png,iVBORw0KGgoAAAANSUhEUgAAAh4AAALHCAYAAADB8kutAAAAAXNSR0IArs4c6QAAIABJREFUeF7tvX+QV9WZ//mA2GkI/RWqO3GUFEWcJJD9QxJLTXbBdUZT4qTYNbGrdCpKNLGmDEoEGZNJFPyBaH7oYKMgulOOJmgqWtUm7lJRUsEZV9hN1HKCf2wgcQxFRR0m3QVJE+i0CFvPDae9ffn8uOd+7o9zzn19qhToPj+e83qee87785xz75300Y9+9Le/+c1v5ggfCEAAAikJfOQjHzny+uuvT0lZnGIQgAAE5KMf/eie3/zmNx+eJCLHjh07BhIIQAACqQlMmjRJJ47U5SkIAQhAQOcNEYn+j/AgHiAAASsCCA8rXBSGAAQixYHwIBAgAIGMBBAeGcFRDQI1JoDwqLHzGToEOiWA8OiUIPUhUD8CCI/6+ZwRQyA3AgiP3FDSEARqQwDhURtXM1AI5E8A4ZE/U1qEQOgEEB4BeXj37t1y+eWXy9e+9jW54ooropE1+lnRQ96xY4csXLhQtm/fLgsWLCi6O9qvkADCo0L4OXQ9PDwczRVbt2519nplPsnB0Y41gfBwzCGdmOOK8OhkDNT1iwDCwy9/Ja01i7r+fM2aNbJ69WrnBoTwcM4lHRuE8OgYoTsNpBEepszOnTsjw01WIlk3ebEn6z3++OPRNyXz84suukh++tOfyqc//Wm57LLL5MILLxxvO/6tSvs0dd0hhyVZCSA8spJzo96dd94peq3PmTNH9uzZI0888YT09vZGxpk5QAXJrbfeGv3MiJPkda/zybXXXiv33XefTJ06dXxw5trXzKeKmnib8X/rPKQfzZTqZ9GiReO2tLLDDYpYYUsA4WFLzOHy7YTHpZdeKjfeeGM0Ap0g7r333mgi0MlmaGhowjZNXHicddZZUb0lS5ZEWyc6WQ0ODsqTTz4ZtaXbOyo4zKQTrztv3rxIoCQnHrZhHA4kC9MQHhawHCsaFwUXXHDBCdujSZGg88SVV14ZfaHo6+ubcN2/+uqrUf1GXyqMuNH6zz33XNSGESlPP/20bN68We64447oZ7pNnJynTNtG9MTtYCvXsaBKaQ7CIyUoH4qlFR4PP/zwCd9O2mU8dPzxrMf8+fMnCI/4uZK48DDfYozQOHz48ATxE/925ANjbJxIAOHhb0S0+oIQz3iYazcuVDSrGT9P1uq61n6uv/76aL546qmnouyJzh+PPfaYPPTQQzJr1iw544wz5J577onKzJ07N/oypIJE/9y1a9cEUZTMovjrgfpajvAIyPfthIdmHuJ7ujp0881j7969TTMeJmvxX//1X9HE8Morr4xPEibj0Ux4aPo2PqEgPAIKuONPIOSR6X76NJ6J0O2V5L+T261ZhYeZl6666qroEKtuo+ifmtl48MEHoyzHG2+8Mb6dY2iaLzeajY0fVkd4+BlvcasRHv77cHwE5oLULZF2d7XEz11oevTss89uKjySWQv9FmLERDvhQcYjoABrMBQyHn76N3lmKz4Ks12Sl/AwXzZ++9vfRt185zvfiTIdmnk14iL+ZUYzHvFPKztcPAzrZ0SUazXCo1zehfZmLvD4IbG4SNB92WbnLZJnMfTbj6ZE4/u5+s3k4osvjtow2Y92woMzHoW6vPLGER6VuyCTAY3OSZgvI3rQVM9rmbMV8fMYyTMef/VXfzVhO6TZwXHTnzk0mjzrEc+4Njvj0cgOznhkcn/llRAelbsgXwOSd5Bo6/GDnMlvOvFb6MzkoHXMSXZT1wgRIzR0yyUpSkyWpdk3FE2vJu3Jd/S0VjYBhEfZxDvvr9EXFNNq/OC42eLQzIRuieidK8m72cz2iV7brW7HNfNOf39/w7tbtP/4NnC7u1q4M67zOKiyBYRHlfTpGwKeE0B4eO7AFua3en5GFQ8mDJd0/UaG8KifzxkxBHIjgPDIDaVzDSE8nHNJMAYhPIJxJQOBQPkEEB7lM6dHCPhOAOHhuwexHwIVEkB4VAifriHgKQGEh6eOw2wIuEAA4eGCF7ABAn4RQHj45S+shYBTBBAeTrkDYyDgBQGEhxduwkgIuEkA4eGmX7AKAi4TGBceM2bM2H/gwIEZLhuLbRCAgFsEZsyYcezAgQOT3LIKayAAAZcJzJw588D+/ftn6sRxTF+94LKx2AYBCDhHgHnDOZdgEAScJxDNGwgP5/2EgRBwkgDCw0m3YBQEnCaA8HDaPRgHAbcJIDzc9g/WQcBFAggPF72CTRDwhADCwxNHYSYEHCKA8HDIGZgCAd8IIDx88xj2QqB6AgiP6n2ABRDwlgDCw1vXYTgEKiOA8KgMPR1DwH8CCA//fcgIIFA2AYRH2cTpDwIBEUB4BORMhgKBkgggPEoCTTcQCJEAwiNErzImCBRLAOFRLF9ah0DQBBAeQbuXwUGgEAIIj0Kw0igE6kEA4VEPPzNKCORJAOGRJ03agkDNCCA8auZwhguBHAggPHKASBMQqCsBhEddPc+4IZCdAMIjOztqQqD2BBAetQ8BAEDAmgDCwxoZFSAAAUMA4UEsQAACtgQQHrbEKA8BCIwTQHgQDBCAgC0BhIctMcpDAAIID2IAAhDITADhkRkdFSEAATIexAAEIGBLAOFhS4zyEIAAGQ9iAAIQyEwA4ZEZHRUhAAEyHsQABCBgSwDhYUuM8hCAABkPYgACEMhMAOGRGR0VIQABMh7EAAQgYEsA4WFLjPIQgAAZD2IAAhDITADhkRkdFSEAATIexAAEIGBLAOFhS4zyEIAAGQ9iAAIQyEwA4ZEZHRUhAAEyHsQABCBgSwDhYUuM8hCAABkPYgACEMhMAOGRGR0VIQABMh7EAAQgYEsA4WFLjPIQgAAZD2IAAhDITADhkRkdFSEAATIexAAEIGBLAOFhS4zyEIAAGQ9iAAIQyEwA4ZEZHRUhAAEyHsQABCBgSwDhYUuM8hCAABkPYgACEMhMAOGRGR0VIQABMh7EAAQgYEsA4WFLjPIQgAAZD2IAAhDITADhkRkdFSEAATIexAAEIGBLAOFhS4zyEIAAGQ9iAAIQyEwA4ZEZHRUhAAEyHsQABCBgSwDhYUuM8hCAABkPYgACEMhMAOGRGR0VIQABMh7EAAQgYEsA4WFLjPIQgAAZD2IAAhDITADhkRkdFSEAATIexAAEIGBLAOFhS4zyEIAAGQ9iAAIQyEwA4ZEZHRUhAAEyHsQABCBgSwDhYUuM8hCAABkPYgACEMhMAOGRGR0VIQABMh7EAAQgYEsA4WFLrAblF4jIF0RkkYh8SETeJyJ/FpHfichWEfmBiOyoAQeG2J4AwqM9I0pAAAITCSA8iIhxAvNFZIOI6J89LbiMiMhOEVl2/E8Q1pcAwqO+vmfkEMhKAOGRlVxg9b4oIt/LMKarROT7GepRJQwCCI8w/MgoIFAmAYRHmbQd7UtFxyYRmZbBvkMishTxkYFcGFUQHmH4kVFAoEwCCI8yaTvYl26r/DIHuz7BtksOFP1rAuHhn8+wGAJVE0B4VO2Bivt/UUQW5mDDdhE5L4d2aMIvAggPv/yFtRBwgQDCwwUvVGSD3r3ybJuDpGlN0wOnf8fdLmlxBVMO4RGMKxkIBEojgPAoDbV7HW0UketyNOtBEbk+x/Zoyn0CCA/3fYSFEHCNAMLDNY+UaM/rIvLXOfb3nyLykRzboyn3CSA83PcRFkLANQIID9c8UqI9o8cfDpZXl/qQse68GqMdLwggPLxwE0ZCwCkCCA+n3FGuMer8vD+T8m6Q9pwmgPBw2j0YBwEnCSA8nHRLOUaR8SiHc8i9IDxC9i5jg0AxBBAexXD1olXOeHjhJqeNRHg47R6Mg4CTBBAeTrqlHKO4q6UcziH3gvAI2buMDQLFEEB4FMPVi1Z5jocXbnLaSISH0+7BOAg4SQDh4aRbyjOKJ5eWxzrEnhAeIXqVMUGgWAIIj2L5Ot8672px3kVOG4jwcNo9GAcBJwkgPJx0S7lG8XbacnmH1BvCIyRvMhYIlEMA4VEOZ+d7UfHxvQxWXiUi389QjyphEEB4hOFHRgGBMgkgPMqk7Xhfuu2yQUT0z54WtuoL4XaKyLLjfzo+LMwrkADCo0C4NA2BQAkgPAJ1bCfD0rtdviAii0TkQ8cfq66PQ/+diGwVkR/wFtpO8AZVF+ERlDsZDARKIYDwKAWz352wuPjtvyKtJzaKpEvbEAiTAMIjTL/mOioWl1xxBtUYsRGUOxkMBEohgPAoBbPfnbC4+O2/Iq0nNoqkS9sQCJMAwiNMv+Y6KhaXXHEG1RixEZQ7GQwESiGA8CgFs9+dsLj47b8irSc2iqRL2xAIkwDCI0y/5joqFpdccQbVGLERlDsZDARKIYDwKAWz352wuPjtvyKtJzaKpEvbEAiTAMIjTL/mOioWl1xxBtUYsRGUOxkMBEohgPAoBbPfnbC4+O2/Iq0nNoqkS9sQCJMAwiNMv+Y6KhaXXHEG1RixEZQ7GQwESiGA8CgFs9+dsLj47b8irSc2iqRL2xAIkwDCI0y/5joqFpdccQbVGLERlDsZDARKIYDwKAWz352wuPjtvyKtJzaKpEvbEAiTAMIjTL/mOioWl1xxBtUYsRGUOxkMBEohgPAoBbPfnbC4+O2/Iq0nNoqkS9sQCJMAwiNMv+Y6KhaXXHEG1RixEZQ7GQwESiGA8CgFs9+dsLj47b8irSc2iqRL2xAIkwDCI0y/5joqFpdccQbVGLERlDsZDARKIYDwKAWz352wuPjtvyKtJzaKpEvbEAiTAMIjTL/mOioWl1xxBtUYsRGUOxkMBEohgPAoBbPfnbC4+O2/Iq0nNoqkS9sQCJMAwiNMv+Y6KhaXXHEG1RixEZQ7GQwESiGA8CgFs9+dsLj47b8irSc2iqRL2xAIkwDCI0y/5joqFpdccQbVGLERlDsZDARKIYDwKAWz352wuPjtvyKtJzaKpEvbEAiTAMIjTL/mOioWl1xxBtUYsRGUOxkMBEohgPAoBbPfnbC4+O2/Iq0nNoqkS9sQCJMAwiNMv+Y6KhaXXHEG1RixEZQ7GQwESiGA8CgFs9+dsLj47b8irSc2iqRL2xAIkwDCI0y/5joqFpdccQbVGLERlDsZDARKIYDwKAWz352wuPjtvyKtJzaKpEvbEAiTAMIjTL/mOioWl1xxBtUYsRGUOxkMBEohgPAoBbPfnbC4+O2/Iq0nNoqkS9sQCJMAwiNMv+Y6KhaXXHEG1RixEZQ7GQwESiGA8CgFs9+dsLj47b8irSc2iqRL2xAIkwDCI0y/5joqFpdccQbVGLERlDsZDARKIYDwKAWzX538o4isEZGbRWS9iJjFZbmIfEtEVovIP/s1JKwtiADCoyCwNAuBgAkgPAJ2btah9YjIsIgcFJExETlVRPaJSJeITBeRXhEZydo49YIigPAIyp0MBgKlEEB4lILZv040s3GTiEw5LjJUjBwRkXtF5Jv+DQeLCyKA8CgILM1CIGACCI+AndvJ0FRo/F5E3hdr5M8i8gGyHZ1gDa4uwiM4lzIgCBROAOFROGJ/O9Csh573OFlE3jl+roNsh7/+LMJyhEcRVGkTAmETQHiE7d+ORhfPepDt6AhlsJURHsG6loFBoDACCI/C0IbRsDnrwdmOMPyZ9ygQHnkTpT0IhE8A4RG+jzsaoWY9HhWRL3G2oyOOoVZGeITqWcYFgeIIIDxyYjt38uTJS2bOnNk/MjIyZ2xsrDundmkmZwJdXV2jPT09e/bv3z949OjRzSKyO+cu6tQcwqMzbzNvdMavtNrMG7miRnh0inP69OkPHTly5EtLly6ddMkll5w8f/58mTFjRqfNUr8gAgcOHJCdO3fKM888886mTZuOTZky5dGDBw9+paDuQm8W4ZHRw8wbGcFVVI15I1fwCI8OcJ7e29u7bfHixbMHBgamITY6IFlRVZ1MVqxYcWjLli17h4eHLxSRtyoyxdduER72nmPesGfmVA3mjY7dgfDIirC3t/dXK1asmLdq1aqsTVDPEQJr166VgYGBXcPDwx93xCRfzEB4WHqKecMSmMPFmTcyOwfhkQWdpkn7+/uXPPbYY9Oy1KeOewSuvvrqQ4ODg5vZdrHyDcLDAhfzhgUsT4oyb2RyFMIjA7a53d3dr7399ttdbK9koOdoFU2fnnbaaWOjo6NncuA0tZMQHqlRCfNGelbelGTeyOQqhIcttsmTJ69dvnz519etW6dP9OQTEIGVK1e+s379+u8ePXqU/bN0fkV4pOMkzBspQXlYjHnD2mkID1tkukc7ODg47/zzz7etSnnHCbzwwgvS39/PWY/0fkJ4pGTFvJESlIfFmDesnYbwsEXW1dV1eN++fd1ss9iSc7+8pk1PPfXU0bGxsanuW+uEhQiPlG5g3kgJysNizBvWTkN4WCMTOXbsmHLjEyKBSZMm6bCi//FpSwDh0RbReAHmjfSsvCvJvGHlMoSHFa6/FGYCyQDNlypMIFaeQnikx8W8kZ6VdyWZN6xchvCwwlWg8Ni9e7fcfvvtsmHDBunt7c1gljtVduzYIXfeeac88cQTLceiZc444wy54oornDGeCcTKFQiP9LgQHulZeVeSecPKZQgPK1wIj1S4EB6pMIVQCOGR3osIj/SsvCuJ8LByGcLDCldJwmNoaCjKfpxyyiny8MMPR71u375dFixYEP1dMwlXXnml6HthLrroIunp6ZGbbrpJbrzxRtGDTk8++WRU/qyzzop+1qgNzTbceuutUXtr1qyR1atXR39X0bBw4cJxLKZf/bmW27dvn3z605+W++67T6ZOfe8MpmZsLr/88ug9KFpOy5uMh7FXG1Wb1b5XXnklGoN+Hn/88SjrEe/72muvHe8j/vNFixa1zaRk8Ol4FSYQK3oIj/S4EB7pWXlXknnDymUIDytcJQoPXcS/9rWvRQuyioQ333wzWoj37t0rN9xwg9x///3S19cX/V4FiREes2bNGhcRWk8/Kip08b7++uujRV+FzebNm6P29HPbbbfJNddcE/3dtD137txogX/xxRejcq+++up4ff1d/DM8PBzZsWTJknF7jfDYtWvXhG2XuE3xrRYjXDZu3DgumHQs1113nSxbtiwSYsYm7buo7RkmEKsrAuGRHhfCIz0r70oyb1i5DOFhhatE4REXALqIG6Hw9NNPyxtvvDEuLlQc6L+N8DjvvPOiRdmIARUdKkwOHz4cZT9UHOjHtBfPWiRZxPtV4dHs3EbyfEqr8yrGXrUrLjzifalNZrvmgQceiDIzRnhk8JdVFSYQK1wIj/S4EB7pWXlXknnDymUIDytcJQqP+EHT+KJ87733jmcx9C9J4aHCQoWGER5bt26dMESzrRHf/jA/04LxLRj9t9nyUOHRTKwkz3TEhce0adMmbPdom2ZrJy484tkVFR7xNjRDY7Zx4lswGXzXtgoTSFtE8QIIj/S4EB7pWXlXknnDymUIDytcDgiPdhmPuPCIb1E0G2cyExLPaiQzHs2ER6uMx3PPPTe+XaOCwjbjkbwzJl4/g+/aVmECaYsI4WGFaLwwwiMbNy9qMW9YuQnhYYXLAeHR7oyHER4me6F/6rZG/AzFnj17xrdrVHiYMx6aWTDCw2QqtL4549FMeBjxYrZ5tA1zxiMuPA4dOjR+JiW51dLsjMdll1024TZjFR764YxHhsjNvwoZj/RMWwqPZKYxfpg8fRd2JeNfGPQsVqPrO7lla9fDiaWTW6qdtmfqp7WzqMcWIDysPInwsMLlgPAwWQO9I0Tv8ND/Dh48OH7GIy48jCAwd7WYLZU0P9e7T+644w754Q9/GD1bpNnEZPjF72pZt25dJHTuuuuucZGgWz5q69KlS+XZZ5+NxIxmb3Qc7e5qiW8LsdWSIWKLq4LwSM+2qfCIHx4324y6tagHrc2dbOm7SV8yzSKcdkFP2yvCIy2poMshPDK415mUaTLTkGEsVEkQ4JuLVUggPNLjajhvNLuG43d/Jb8oNMqGJBf0uKgwGUJz3sucsWqW8dDy5jZ8FfqaITWH1Fvdbq9fUPSjX1bMbfPJO+Didsb70b/Hx9Xsdv847jiXNHbOmzcvypSaL0H6hSZ+fix+q36zL2fN3M28kf5C0Kd/62sp9L0UTCDpuVUqPJIXfvwZHOmHQEkmkFxigHkjPcam84bJ6DW7lpvdFh9f1DUzkbztvNHdbio2zB1zaro5xB7PaOoBdnP7vh4q1+f6qCjQ2/db3W5vypnnB8Vv7TeYkgfl4/20u90/KWLimaK0dupWtRmzEWTxxwAYe+Jn6ZTtLbfcEmVwmz1VGuGR/kJAeFixGi9cqfDIZjK10hJgAklLKiqH8EiPq+W8kbwLzYiQVrfFx7dh4pmTSy+9dPzW+eRWTVygNBIed999t9x8883RbffJ2/CTbbW63b7ZIXBTp1k/ek5szpw5bW/3jx+Kt7EzLjzMgxrNayriokwfcBh/bEE7NzNvtCM04fdkPKxw/aUwwiMDNF+qMIFYeQrhkR5X6nkjLiIuvvji8e2BeFfxW+DNz81inzyQncySmm2QRsJDt1T0YYKNnv+jC3za2+3bCY9kP2pL8vb65JON4+NvJ8ia2RkXHsmHGyazRvE22h32Zd5IfyGQ8bBiRcYjGy6/ajGBWPkL4ZEeV0Ph0SyNbxbu5JN7W3Vnzmz8/d//vbz22muReEgu0J1kPIw4MLe4t7rdvp3waJXxiN+xlsxsmPG3yni0sjNtxqPVNlYjHzBvpL8QEB5WrNwSHuZbTLNDXNmG1r5WmpPwyVaaTR7te3uvRNoXz9m0yQTSKS22WiwItryrRdsx70tq9AoC8/v4befJrY/4gUjzDT0pPFQQ3HPPPdGrExplPMzdZvFXJZizG/EFvd3t9u2Eh/aTPEtiznjEtznit/snz3gkX+mQxs60ZzzUNvPmbM54WER5uqJstaTjNKFU6pRphrZTVyn6eRbNDMkiPFIPqkVBhEceFHNvg4zHe0j/UUT+DxEZaULZ6jke8a0UmzssdF7Q53HEH7wXvx1db63Xg5h6hkMPizY6XKr2x+9q+R//43/IJZdcMuGlk+1ut08jPOL96N+NWEo73uRdLWns1H5MRqXVXS3JMzdsteQ6dyA8MuDMRXg0ehOruRD1NHijN8caW+MTiTmE1qo988babdu2yVNPPRVNIA8++GD0Jlmd4PQQlfZnbicz32YaPQU1/i1JT3g3evPs7NmzJ7wp1/Rr2os/86PV22ZbvfG22ZtsM/hzQhVSplYEER7v4TokIieJyHeP/5cUILnMG1beoXBpBJg3rFAjPKxw/aVwxxNI/PS0WaRVbJgXvWkn7d4IG/9G0eypn8k31ppvCPH2NT2p4sOchNdT5clT8a32heOPWDe3/TXrV4WHuZe+0S1s8RfWtXrjrZ5GN7f1xfmZVHUGn45XYQKxoofweA/XjSKyVp9PcPw/famSihAjQDqeN6w8Q+FSCTBvWOFGeFjhykl4JF+IlrzFLP6G2WbvW4kLj2Zvdn3kkUeik+KmveTDipLbJuZUeVrhkbynvdmbcuNnPOLpXa0fF2HxPVyb97/k+TREJhCrKwLhMRHXkIj0Hv/R4YQA+eOxY4qLT4gEmDesvIrwsMKVo/Awt4qZ/nXLwQiFNC96iwuPZm921QNSKiaa3ZPfqfBo9uZZk/Fo1K+ON54lSd7CZni0euOtvv+lEb/kC+Uy+FaOTyBZqlIHAkrgqIhMjqEYE5GnReTvER7hBgjCw8q3CA8rXDkKj0YPp0ne/dFsUVYzbDIenQqPZk87bPbm2VbCI6+Mh83DfWx8zARiQ4u7WhK0yHhYhU84hZk3rHyJ8LDClZPwSG4vmEf/Ju9tTys82p3xyCo8zCOPm92C1+zNs62ER9ozHq3eeBs/46HbM8mXbGXw6XgVJhAremy1vIdrhYjoWxE542EVQmEUZt6w8iPCwwpXTsJDm4nflZHmbpJG97DHv/W3uqvFVnjo7WbJt82+9NJL0a13+km+6yD55tl2j13OcldL/I23ejakEb9m71Gw8TETiA0tMh4xWt7c1ZLcmm3k8apum28Wfa7Zk7STecN+3uAlcVbMOr+rxa47SpdJgAnEijYZj/dwdfQcDyvqHRb2UXh0OOTCqzNvWCEm42GFK8eMR4Z+qVICASYQK8gIj/S4Kr2dNv6k44suukj++Mc/Rrfs68c8LEz/bh6U1SzDkPx5q9fcm4egJe86i59Pa/ZyPLMdrTbpNXnHHXfIwMCAmBe6FfUcn/TunFiSecOKHMLDChfCIwMuv6owgVj5C+GRHldlwqPRGTA12zy2XP+uz8DRxdw8tlx/ZrZU41uYrYRHs1fJ68vY9Gmq2p8+q6fZbffJQ+yXX365bNy4MXpLbrxfPeNlfqcPQ1ThZM6jpXdHviWZN6x4IjyscCE8MuDyqwoTiJW/EB7pcVUmPBo950eFQKs30SbvPjPDTCs84lhaZTzi5ZIPKjQPCdTzbfF+k0KmrNcptHI180b6C4GXxFmxGi9c2QSSzVxq2RBgArGhxeFSC1qVzRvNHlhohIceDo9/dIvk7LPPts54aDaj0avkWwmP+JaJ2mBeepnMuMSFR/I2fhcOnjJvWFwJ8pd5g8OlVsw4XGqHy6/STCBW/iLjkR5XZcKjVcZDb33XLZXkXXNpz3g0O6gaz17o1kh8q8W8WuG6666LXtimAki3U5q9msE84bjRC+1U7JDxSB+EjpREeGRwRGUTSAZbx6vk+VhxF75hdMKClGlu9BAe6VFWNm+YA5y6wJszEWp28oxH/CxIq62W5PmKeFuNXiWvWyPm7Ii2q2JDhUZSeDR7XlBSeHDGI33QOVoS4ZHBMZVNIBlsLUR4dGKH63XJeFh5COGRHlel80Z8S+Phhx+W119/PbpTRD/xu1rMnSitvlyYN1LrtoiKh1dffTUSMYcOHYpEhdm6ib9K3mzB6DOL9L+DBw9GmY74263VLm1LnzvU6AnH8cOu3NWSPvAcLInwyOCUSieQDPZGVVrd9hafIOIX9Jo1a+ST8UShAAAgAElEQVTNN98cP41u+k4e9NJb3PTzwx/+cHyPNpm6zWp32fUQHlbEER7pcXk5b6QfXr1LMm9Y+R/hYYXrL4W9nEDiwkNfHmcEhX7DSKZBG6Vk46+sTwqPhQsXRvf/u3JrWwafjldhArGih/BIj8vLeSP98OpdknnDyv8IDytcAQiPZo8zP++882TOnDkTDoE1OxeSFB7xt83GHw6UgW3lVZhArFyA8EiPC+GRnpV3JZk3rFyG8LDCFYDwSN67r0NS4aCHwvTz4osvjm+tpBUejR4OpP34+GECsfIawiM9LoRHelbelWTesHIZwsMKVwDCo4iMB8IjQxSFUQXhkd6PCI/0rLwrifCwchnCwwpXAMLD3EKX5xkPhEeGKAqjCsIjvR8RHulZeVcS4WHlMoSHFa5AhIcOo9GLofTn8ZdJxW+Va3W4FOGRIYrCqILwSO9HhEd6Vt6VRHhYuQzhYYXLY+GRYZzR2Q/9+HpeI8uYmUCsqCE80uNCeKRn5V1J5g0rlyE8rHAFLjzMkwt37twZjfTaa6894RkeGXh5VYUJxMpdCI/0uBAe6Vl5V5J5w8plCA8rXIELjwwsgqvCBGLlUoRHelwIj/SsvCvJvGHlMoSHFS4R6erqOrxv377uGTNm2FalvOMEDhw4IKeeeuro2NjYVMdNdcU8hEdKTzBvpATlYTHmDWunITxskfX29v5qcHBw3vnnn29blfKOE3jhhRekv79/1/Dw8McdN9UV8xAeKT3BvJESlIfFmDesnYbwsEU2efLktcuXL//6unXrTratS3m3CaxcufKd9evXf/fo0aOr3LbUGesQHildwbyREpSHxZg3rJ2G8LBGJjK3u7v7tbfffruL7ZYM9BytounS0047bWx0dPRMEdntqJmumYXwSO8R5o30rLwpybyRyVUIjyzYpk+f/lB/f/+Sxx57bFqW+tRxj8DVV199aHBwcPPBgwe/4p51zlqE8LBwDfOGBSxPijJvZHIUwiMTNhHRPdsVK1bMW7WKrHxWhq7UW7t2rQwMDHC2w94hCA9LZswblsAcLs68kdk5CI/M6ERO7+3t3bZ48eLZAwMD09h26YBkRVU1TbpixYpDW7Zs2Ts8PHyhiLxVkSm+dovwsPcc84Y9M6dqMG907A6ER6cINX165MiRLy1dunTSJZdccvL8+fMFEdIp1eLq66ShD0h75pln3tm0adOxKVOmPMr2SmbeCI+M6Jg3MoKrqBrzRq7gER454Zw7efLkJTNnzuwfGRmZMzY21p1TuzSTM4Gurq7Rnp6ePfv37x88evToZg6SdgQY4dERPmHe6IxfabWZN3JFjfDIFSeNQaBeBBAe9fK3zWiJDRta9SqL8KiXvxktBHIlwOKSK86gGiM2gnJnroNBeOSKk8YgUC8CLC718rfNaIkNG1r1KovwqJe/GS0EciXA4pIrzqAaIzaCcmeug0F45IqTxiBQLwIsLvXyt81oiQ0bWvUqi/Col78ZLQRyJcDikivOoBojNoJyZ66DQXjkipPGIFAvAiwu9fK3zWiJDRta9SqL8KiXvxktBHIlwOKSK86gGiM2gnJnroNBeOSKk8YgUC8CLC718rfNaIkNG1r1KovwqJe/GS0EciXA4pIrzqAaIzaCcmeug0F45IqTxiBQLwIsLvXyt81oiQ0bWvUqi/Col78ZLQRyJcDikivOoBojNoJyZ66DQXjkipPGIFAvAiwu9fK3zWiJDRta9SqL8KiXvxktBHIlwOKSK86gGiM2gnJnroNBeOSKk8YgUC8CLC718rfNaIkNG1r1KovwqJe/GS0EciXA4pIrzqAaIzaCcmeug0F45IqTxiBQLwIsLvXyd6vR/qOIrBGRm0VkvYiY2FguIt8SkdUi8s/ggoCJjUmxIIEKBCAAgbQEEB5pSYVfrkdEhkXkoIiMicipIrJPRLpEZLqI9IrISPgYGGEKAmQ8UkCiCAQg0JgAwoPIiBPQzMZNIjIl9sMjInKviHwTVBA4TgDhQShAAAKZCSA8MqMLsqJmPX4vIu+Lje7PIvIBsh1B+jvroBAeWclRDwIQGN/HBwUEDAHNeuh5j5NF5J3j5zrIdhAfcQIID+IBAhDITICMR2Z0wVaMZz3IdgTr5o4GhvDoCB+VIVBvAgiPevu/2ejNWQ/OdhAfjQggPIgLCEAgMwGER2Z0QVc8Q0ReEZGzReSNoEfK4LIQQHhkoUYdCEAgIoDwIBCSBPQ22i3HRYeKj8XHb6uFFAQMAYQHsQABCGQmgPDIjC7IiuOi45xzzpGXX35ZB4n4CNLVHQ0K4dERPipDoN4EEB719n989BNEx5YtW2Tx4sWID+KjEQGEB3EBAQhkJoDwyIwuqIoniI4PfvCD8t///d+Ij6DcnNtgEB65oaQhCNSPAMKjfj5Pjrih6DCFEB8ESAMCCA/CAgIQyEwA4ZEZXRAVW4oOxEcQPi5iEAiPIqjSJgRqQgDhURNHNxhmKtGB+KhvgLQYOcKDsIAABDITQHhkRud1RSvRgfjw2tdFGI/wKIIqbUKgJgQQHjVxdGyYmUQH4qN+gULGA59DAAJFEEB4FEHV3TY7Eh2ID3cdW7JlZDxKBk53EAiJAMIjJG+2HksuogPxUZ+AIeOBryEAgSIIIDyKoOpem7mKDsSHew4u2SIyHiUDpzsIhEQA4RGSNxuPpRDRgfgIP3DIeNTaxwweAoURQHgUhtaJhgsVHYgPJ3xchRFkPKqgTp8QCIQAwiMQRzYYRimiA/ERbgCR8ailbxk0BAongPAoHHElHZQqOhAflfi4yk7JeFRJn74h4DkBhIfnDqw605Hsn3e7hBdQDUaE8KiFmxkkBIohgPAohmtVrVaS6UB8VOXuyvpFeFSGno4h4D8BhIf/PjQjcEJ0sO0STkC1GAnCoxZuZpAQKIYAwqMYrmW36pToQHyU7f7S+0N4lI6cDiEQDgGEh/++dFJ0ID78DywyHkH7kMFBoDICCI/K0OfSsdOiA/GRi49dbISMh4tewSYIeEIA4eGJoxqY6YXoQHz4G2BkPIL0HYOCQOUEEB6VuyCTAV6JDsRHJh+7XImMh8vewTYIOE4A4eG4g3zPdCTt5zkf/gVcA4sRHkG4kUFAoBoCCI9quGft1ctMB+Ijq7udrYfwcNY1GAYB9wkgPNz3kbEwCNHBtos/AdfCUoRHEG5kEBCohgDCoxrutr0GJToQH7bud648wsM5l2AQBPwhgPBw31dBig7Eh/uBR8bDax9hPAScJYDwcNY1kWFBiw7Eh9vBh/Dw1j8YDgGnCSA83HVPLUQH4sPdAER4eOkbjIaA8wQQHm66qFaiA/HhZhAiPLzzCwZDwAsCCA/33FRL0YH4cC8QER5e+QRjIeANAYSHW66qtehAfLgVjAgPb/yBoRDwigDCwx13ITpivuAJp+4EZgNLuJ3WafdgHATcJoDwcMM/iI4GfkB8uBGcCA9n/YBhEPCSAMKjerchOlr4APFRfYAiPJz0AUZBwFsCCI9qXYfoSMEf8ZECUrlF2Goplze9QSAoAgiP6tyZSXTceeedcuutt55g9eOPPy6XXnqp3HjjjbJkyRJZsGBBdSM73vPhw4dzswfxUbk74wYgPJxyB8ZAwC8CCI9q/JVJdKipKjz0s3r16hMsz3OhrwZL614RH854BeHhjCswBAL+EUB4lO+zzKIjq/BICpLh4WFZtmyZ3H777TJ37txIzJgsypo1ayJRs3v37uj3GzZskN7eXtmxY4ds3rxZ7rvvPpk6dao88cQTcuWVV0b05s+fL08++aTMnj07ynAcOHAg+ve2bdvkqaeeGs/AaJuXX3657Ny5UxYtWhS1oW3bfBAfNrQKK4vwKAwtDUMgfAIIj3J93JHoKEJ4DA0NjQsKbf+2226Ta665JqLSTHi8+uqrkVgxwsFkYW666aZIeMyaNSsSL3HBM2/ePLniiisiEaJ/ap0333xzXMjYuAHxYUOrkLIIj0Kw0igE6kEA4VGenzsWHUZ4JM94JDMOyTMerTIeceGhmQzzaZfxiGNTAfLGG2+IER7nnXdeJC7i/fb19U0QMtr+DTfcIPfff3+UdbH9ID5sieVaHuGRK04ag0C9CCA8yvF3LqKjiIyHLvrxbRM9pKqioZXwUDs0s/Hwww+P09MtGiM8jPCJCw9ju8mSJLd7srgB8ZGFWi51EB65YKQRCNSTAMKjeL/nJjryEh7Nsg2tMhQqGF588cVoa+Tpp58e/7s57xHPeDQSHnlnPIzbEB/FB3CDHhAelWCnUwiEQQDhUawfcxUdnQoPc/ZCRcQ999wTHQB95ZVXom0ScyYjfsZDD4Ju3LhRzjrrrCjDoZ+k8Dh06FCUIdHbd1tlPPI845F0GeKj2CBGeJTOlw4hEDQBhEdx7s1ddBjh0eg5Ho22OuJDi99Rsm7dOnnppZeiMxfmThSzbWK2WrSu2YLRMyTXXXed6KFSFR5GbGzdujW6O2Xp0qXy7LPPyt133y0333zz+F0sybMledzV0sxdiI/iAhnhUSpbOoNA8AQQHsW4uBDRUYyp4bSK+CjNl2y1lIaajiAQHgGER/4+RXTkzzR1i4iP1Kg6KYjw6IQedSFQcwIIj3wDANGRL89MrSE+MmGzqYTwsKFFWQhAYAIBhEd+AfFBEdkiIuecc845smXLFvngB/VHfKogkBAfL4vIYhH57ypsCbBPhEeATmVIECiLAMIjX9JkPPLlmak1Mh6ZsNlUQnjY0KIsBCBAxqPgGEB8FAy4VfOIjlLgIzxKwUwnEAiTABmPYvzqpfhIPq20EZo0ZYpB2r5VREd7RjmVQHjkBJJmIFBHAgiP4rzupfhoh8NV4YHoaOe5XH+P8MgVJ41BoF4EEB7F+rtS8WEe4GUeDrZ9+/boCaP6Ztgzzjij5Yvcpk2bNuF9LPpgsYsvvjiqYx4cpg8Y05fMdfqq+05dgOjolKB1fYSHNTIqQAAChgDCo/hYqEx8mNfV6+PQd+zYIddff330mHR9Wql5NLoKhz179pzwYrjnnntu/FHq+kK3W265Re66665IaOgTTzds2BCRUyGi7RtBk/VV91ndgOjISq6jegiPjvBRGQL1JoDwKMf/pYsPFQtxUdDo8eUqPiZNmhSJiN7e3glvpI0Ljzii+FbLrl27ouyJeeNs2dswiI5ygrdBLwiPytDTMQT8J4DwKM+HpYoPIzx0WyT+ib+LJb7lomWSwkF/b94LY7ZpksJj4cKFE9rX97poVmXu3LmFkkV0FIq3XeMIj3aE+D0EINCUAMKj3OAoTXyo8Fi2bFm0LdJIBOjWyzPPPBON/pprronKNMtYxNvS8marRTMemzdvjl4cN3Xq1NJIIjpKQ92sI4RH5S7AAAj4SwDhUb7vShMf8TMe5s2w+pp7fUV9/MzGI488InfccYfs3bt3XFQ8+OCD4wdQ057x0C0XFSJm66UItIiOIqhat4nwsEZGBQhAwBBAeFQTC6WIj+RdLbrNcumll0Z3qyxZsiQ6EKofFQpvvPGGXHbZZSccHDVbNWarxWzhmHrxu1qK3mZBdFQTrA16RXg44woMgYB/BBAe1fmsFPFR3fDy7RnRkS/PDltDeHQIkOoQqDMBhEe13kd8pOCP6EgBqdwiCI9yedMbBIIigPCo3p2IjxY+QHRUH6BstTjpA4yCgLcEEB5uuA7x0cAPiA43ghPh4awfMAwCXhJAeLjjNsRHzBeIDncCE+HhtC8wDgLeEUB4uOUyxIeIIDrcCkqEh/P+wEAIeEUA4eGeu2otPhAd7gUkwsMLn2AkBLwhgPBw01W1FB+IDjeDEeHhjV8wFAJeEEB4uOumWokPRIe7gYjw8Mo3GAsB5wkgPNx2US3EB6LD7SBEeHjnHwyGgNMEEB5OuycyLmjxgehwPwARHl76CKMh4CwBhIezrplgWJDiA9HhR/AhPLz1E4ZDwEkCCA8n3dLQqKDEB6LDn8BDeHjtK4yHgHMEEB7OuaSlQUGID0SHX0GH8PDeXwwAAk4RQHg45Y5UxngtPhAdqXzseiFeEue6h7APAg4TQHg47JwWpnkpPhAdfgYbGY9g/MZAIOAEAYSHE27IZIRX4gPRkcnHrlYi4+GqZ7ALAh4QQHh44CTfMx+IDr+DjIxHcP5jQBColADCo1L8uXTudOYD0ZGLj11rhIyHax7BHgh4RADh4ZGzfMt8IDrCCC4yHsH6kYFBoBICCI9KsBfSqVOZD0RHIT52pVEyHq54Ajsg4CEBhIeHTnM984HoCCuoyHgE708GCIFSCSA8SsVdSmeVZj4QHaX4uOpOyHhU7QH6h4DHBBAeHjvPtcwHoiPMYCLjURu/MlAIlEIA4VEK5ko6KTXzgeioxMdVdUrGoyry9AuBAAggPAJwYtWZD0RH2EFExqN2/mXAECiUAMKjULxONF5o5gPR4YSPyzaCjEfZxOkPAgERQHgE5MyyMx+IjnoEDxmP2vqZgUOgEAIIj0KwOtlorpkPRIeTPi7LKDIeZZGmHwgESADhEaBTi858IDrqFTRkPGrvbwBAIFcCCI9ccXrRWEeZD0SHFz4u2kgyHkUTpn0IBEwA4RGwc/POfCA66hksZDzwOwQgkCcBhEeeNP1qyyrzgejwy7kFW0vGo2DANA+BkAkgPEL2bvuxpRIfiI72IGtWAuFRM4czXAjkSQDhkSdNP9tqKT4QHX46tWCrER4FA6Z5CIRMAOERsnfTj62h+EB0pAdYs5IIj5o5nOFCIE8CCI88afrd1gniY/HixfLyyy/rqF4RkcUiss/vIWJ9TgQQHjmBpBkI1JEAwqOOXm8+5gniA9FBcDQhgPAgNCAAgcwEEB6Z0QVbcVx8kOkI1sedDgzh0SlB6kOgxgQQHjV2fouhq/j4LxH5K7ZXCJAGBBAehAUEIJCZAMIjM7rgKxIbwbs48wARHpnRURECEGBxIQaaESA2iI2WsTFJRAgSggQCELAlwLxhS6w+5YmN+vjadqRkPGyJUR4CEBgnwOJCMJDxIAZsCSA8bIlRHgIQQHgQA20JIErbIqptAYRHbV3PwCHQOQEWl84ZhtoCsRGqZzsfF8Kjc4a0AIHaEmBxqa3r2w6c2GiLqLYFEB61dT0Dh0DnBFhcOmcYagvERqie7XxcCI/OGdICBGpLgMWltq5vO3Bioy2i2hZAeNTW9QwcAp0TYHHpnKEcO3ZMOTr9mTRpkj52weZjHRs+cEgCyMDFhmGoZREeoXqWcUGgBALWi0sJNnnXhQ8LboYF1jo2fOCA8Mjl8kJ45IKRRiBQTwLWi0s9MbUetS64TzzxhFx55ZXjBR9//HG54oorZMeOHbJ582a57777ZOrUqZnwDQ8Py7Jly+T222+XuXPnntBGu99rhTKEx5o1a47peJVFb29vZOedd94pZ5xxRsQi70+acbfrPwOXvIfhY3sIDx+9hs0QcIQAwiMHR+zatevYDTfcIPfff38kDHbv3i2XX365bNy4URYsWJBDD62b0P7i/TcqnWGBtY4NFR633nqrGNFVtPBoB/bw4cNy4403ynnnnddU+GTg0q7bOvwe4VEHLzNGCBREwHpxKcgOr5vdvn37Mf1mHf+mbwbULOOh39Y1C7B161aZP3++PPnkkzJ79uwJC6W2p9mSBx54QHRB14zHK6+8Mp5Zufbaa+Xuu++Wm2++WR5++GHRf2tmZe/evZHw2blzpyxatCiyq6+vr/AzHio8RkZGoqFfc801kQiLZxyMEFBbzZgbZXC0jo5XPypiLr300rZctKwZs2nbsDL/jpfpgIvXsZqT8QiPnEDSDATqSADhkYPXdaslvlhu3759PNPRSHiYBXjJkiVRuXiZQ4cOyS233CIrV66UdevWyV133RVZqFstK1askIGBgUiAGJGibfT19Y1nPPTv8W0ZFR1vvPGGLuSlCA+19YILLpDnn39eVq9ePUF4KCP96M91zI3EmrFXy8S3UnRczbgoj6eeemp8S8e0cdNNN40LlosvvjgvLjlEjPdNIDy8dyEDgEB1BBAeObCPH6o02yzarGYxhoaGTjjjEc92mO7jGYDkVk18AdYFVrMBJruh50biWy3xb/Wmbf12v3Xr1j4RGbYYrnVsaMbDCAvNvHz2s58dFwQma2HEVrPzGXEBZ2w1WzetuCjnhQsXTsikxLdazj777PGMSIdcLBAGWxThEaxrGRgEiidgvbgUb5J/PTS6m8NsMcyZM6eh8Gh1WFSzAbqImgU3uUjHtyy0jC6q5oyH0tMMwIYNG8YPeOrPMpxlsI6NuPBQkfDII49EzlRRZSM8mh1GbcdF+zKHfOPbUHrGQxnlxMW/AM3fYoRH/kxpEQK1IWC9uNSGjMVAH3/88WN6FiN5N4duOegneVeLEQ6zZs06YdtBy+uWwqpVq6LDqnpWwmyf6FbLo48+Gm2/6F0jRtzEhYeW1bMjmlnQP9WmF198Uc+ATBORwxbDso6NuPCIiwAjoNJutRiW2oaOQbdd5s2b15SL2WpR3vGtK3P+RYWHbrXkxMUCYbBFER7BupaBQaB4AtaLS/Em+ddD8oyHjqDd7bSNDpca0aALrVlAdbGOHy41Wwrah9lu0XMhuqhqdqXqw6Vql9qvHzNGI4KyHi41oqEVF8MufljXHG4dHByMtr30k8OhW/8CNH+LER75M6VFCNSGAMIjB1f78OCsMrZafOCQdHcGLjlEjPdNIDy8dyEDgEB1BBAeObD3YcHNsMBax4YPHBAeOQS8CMIjF4w0AoF6ErBeXOqJqfWofVhwER6NfZiBC5cAwoMYgAAEOiCA8OgAXuBViY3AHdzB8Mh4dACPqhCoOwEWl/YR8B0R6W5fLLgSN4jI/cGNKvuARkXkn7JXD6omwiModzIYCJRLAOHRnrcyWt6+WHAl/lcR+b+DG1X2Aa3Xx6Fkrx5UTYRHUO5kMBAolwDCoz1vGLVnVIcSxMF7XkZ41CHiGSMECiLAZNoeLIzaM6pDCeIA4VGHOGeMECicAJNpe8Qwas+oDiWIA4RHHeKcMUKgcAJMpu0Rw6g9ozqUIA4QHnWIc8YIgcIJMJm2Rwyj9ozqUII4QHjUIc4ZIwQKJ8Bk2h4xjNozqkMJ4gDhUYc4Z4wQKJwAk2l7xDBqz6gOJYgDhEcd4pwxQqBwAkym7RHDqD2jOpQgDhAedYhzxgiBwgkwmbZHDKP2jOpQgjhAeNQhzhkjBAonwGTaHjGM2jOqQwniAOFRhzhnjBAonACTaXvEMGrPqA4liAOERx3inDFCoHACTKbtEcOoPaM6lCAOEB51iHPGCIHCCTCZtkcMo/aM6lCCOEB41CHOGSMECifAZNoeMYzaM6pDCeIA4VGHOGeMECicAJNpe8Qwas+oDiWIA4RHHeKcMUKgcAJMpu0Rw6g9ozqUIA4QHnWIc8YIgcIJMJmeiPgfRWSNiNwsIutFxDBaLiLfEpHVIvLPhXuGDqomQBw090B0TUyKXRxVO4v+IQABfwggPE70VY+IDIvIQREZE5FTRWSfiHSJyHQR6RWREX9cjKUZCRAHCI+MoUM1CECgFQGER2M6mtm4SUSmHBcZuggdEZF7ReSbhFRtCBAHjV1NxqM2lwADhUD+BBAejZmq0Pi9iLwv9us/i8gHyHbkH4QOt0gcIDwcDk9Mg4CfBBAezf2m33Z1n/9kEXnn+LkOsh1+xnknVhMHJ9Ij49FJRFEXAjUngPBoHgDxb7tkO+p7oRAHCI/6Rj8jh0ABBBAeraGaPX7OdhQQfB41SRxMdBYZD4+CF1Mh4BoBhEdrj+i33UdF5Euc7XAtdEu1hzhAeJQacHQGgZAJ5CU85k6ePHnJzJkz+0dGRuaMjY11hwzN57F1dXWN9vT07Nm/f//g0aNHN4vI7hzHQxzkCLPIpjqMAzIeRTqHtiEQOIGOhcf06dMfOnLkyJeWLl066ZJLLjl5/vz5MmPGjMCx+Tu8AwcOyM6dO+WZZ555Z9OmTcemTJny6MGDB7/S6YiIg04Jllu/wzhAeJTrLnqDQFAEOhEep/f29m5bvHjx7IGBgWmIDf/iQhefFStWHNqyZcve4eHhC0XkrQyjIA4yQHOpSoY4QHi45EBsgYBnBDILj97e3l+tWLFi3qpVqzwbMuYmCaxdu1YGBgZ2DQ8Pf9yWDnFgS8zd8hZxgPBw141YBgHnCWQSHppW7+/vX/LYY49Nc36EGJiKwNVXX31ocHBws822C3GQCq1XhVLGAcLDK69iLATcIpBFeMzt7u5+7e233+5ie8UtZ3ZijabbTzvttLHR0dEzUx44JQ46Ae5o3ZRxgPBw1H+YBQEfCFgLj8mTJ69dvnz519etW6dP9OQTEIGVK1e+s379+u8ePXq07f4ZcRCQ4xNDSREHCI9w3c/IIFA4AWvhoXv6g4OD884///zCjaODcgm88MIL0t/fn+qsB3FQrm/K7C1FHCA8ynQIfUEgMALWwqOrq+vwvn37utlmCSwSRETT7Keeeuro2NjY1HajIw7aEfL39yniAOHhr3uxHAKVE7AWHiJy7NgxrcYnRAKTJk3SYUX/a/MhDtoR8vj3beIA4eGxbzEdAlUTQHhU7QHH+kd4OOaQisxBeFQEnm4hUAMCCI8aONlmiAgPG1rhlkV4hOtbRgaBqgkgPKr2gGP9Izwcc0hF5iA8KgJPtxCoAQGERw2cbDNEhIcNrXDLIjzC9S0jg0DVBBAeVXvAsf4RHo45pCJzEB4VgadbCNSAAMKjBk62GSLCw4ZWuGURHuH6lpFBoGoCCI+qPeBY/wgPxxxSkTkIj4rA0y0EakAA4VEDJ9sMEeFhQyvcsgiPcH3LyCBQNQGER9UecKx/hIdjDqnIHIRHReDpFgI1IIDwqIGTbYaI8LChFW5ZhEe4vmVkEKiaAMKjag841j/CwzGHVGQOwqMi8HQLgRoQQHjUwMk2Q0R42NAKtyzCI1zfMjIIVE0A4VG1BxzrH+HhmI7kThEAACAASURBVEMqMgfhURF4uoVADQggPGrgZJshIjxsaIVbFuERrm8ZGQSqJoDwqNoDjvUfivDYvXu33HDDDXL//ffL3LlzHaPsvjkID/d9hIUQ8JWAV8JjeHhYrrjiCtm6dWvE+9prr5X77rtPpk6dasX/iSeekBdffFHuvvtuufnmm2XJkiWyYMECqzYaFT58+LDceOON8vDDDze0784775Rbb71V5s+fL08++eT4ghgfV9YxdWz88QZ8EB5p4kBZX3DBBS39WlQcxH3RSAA1iwNTT+164403ZPXq1Xm51bodhIc1MipAAAIpCXgjPMxioyJBxYd+zMJhKz6y1mvHVNvVj9pnRMh5550X/Tve56uvviq6+OjPpk2bFokVU05/rp+qFh3XhYcPcWDixMTAz3/+83Gh2SwOent7x2P6yiuvlDVr1lQWA2oIwqPd1c7vIQCBrAS8ER6NxIKZ2E3GQr9dXn755bJz505ZtGhRtLCbCX3Hjh2ycOHCKNtw0UUXyR//+McTMh6mjMLUif/NN98cz6jEf5c2KxG3+d5775UzzjgjEiFm8VRxMW/ePFm2bJncfvvtUQZE+zGixNie1blZ6rkuPHyKA7VVY1H/M1s+6ttGcaAZN/2dxtxZZ50l+/btQ3hkCWDqQAACzhPwQngksweNqCa/CZtJXLMhe/fujQTJxo0bo0ldMwz6iW+1qABQUaBiIF6mWf1Zs2a1XRhM9uKmm26K+jQCKT6es88+OxIdGzZsiERS1WcTXBYePsWB+lH9qqJSRawKj9mzZzeNA5PFM5k8tlqcnzsxEAIQyEjAK+HR6iyGmegbLeBDQ0OyefPmCdkL/XdceCi/RmVUeOjWSPJ37bIS8cyF2X5RUaPfbOML6Jw5cyZkOBAezSM5meFqVNKVODBnTPr6+sYPuerfjbhNxgHCI+MM5mi1fxORv3HUNsyCgJcEjh1TvVLeJ8033eQWhWZAzBbGK6+8Eh0mNWdBtGxSeOzZs6dhGa3z9NNPT/hdcnFLktD2r7/++vF9/eSCScYjW+z4Egfq/+effz7KiMWFJBmPbH73sVaWb3Q+jhObIZCFQJbr41jZwsOkn+PiwQw2/s2y2ZZFmRkP3ddXURM/X6K2Ntvb54yHXdg2OxjsUhyYu1biIzN3Mj311FNNz3iY8tzVYhcTLpbOMrG6OA5sgkARBLJcH5UIj2Z3M5hFXuFoutrc9RI/43Ho0KGG5zfyPuPR6mAod7XkE74+xEF8pMmts3Z3tRiRzRmPfOKlqlayTKxV2Uq/ECibQJbroxLhoWCSz29I3rmS5q4WbUefs/H666/LN77xjQnP8Yjf+XLddddFZzvi2zN6V4x+mt3V0uibbrwsz/HIJ7xdj4NWwsNkvxo9z4WMRz7x4UIrWSZWF+zGBgiUQSDL9VGZ8CgDiOmj6udplDnWeF8u39VSBRPioCH1aN6YJCJZJpAq/Fh2n3Apmzj9+UQgy/URpPCIZ0taZTV8cm4WW+suPIiDv0QNDxDLcvW8VyfLxNpZj9SGgD8EslwfQQoPf1xWrKV1Fx7F0vWndYRHZ77KMrF21iO1IeAPgSzXB8LDH/9aW4rwsEYWZAWER2duzTKxdtYjtSHgD4Es1wfCwx//WluK8LBGFmQFhEdnbs0ysXbWI7Uh4A+BLNcHwsMf/1pbivCwRhZkBYRHZ27NMrF21iO1IeAPgSzXB8LDH/9aW4rwsEYWZAWER2duzTKxdtYjtSHgD4Es1wfCwx//WluK8LBGFmQFhEdnbs0ysXbWI7Uh4A+BLNcHwsMf/1pbivCwRhZkBYRHZ27NMrF21iO1IeAPgSzXB8LDH/9aW4rwsEYWZAWER2duzTKxdtYjtSHgD4Es1wfCwx//WluK8LBGFmQFhEdnbs0ysXbWI7Uh4A+BLNcHwsMf/1pbivCwRhZkBYRHZ27NMrF21iO1IeAPgSzXB8LDH/9aW4rwsEYWZAWER2duzTKxdtYjtSHgD4Es1wfCwx//WluK8LBGFmQFhEdnbs0ysXbWI7Uh4A+BLNcHwsMf/1pbivCwRhZkBYRHZ27NMrF21iO1IeAPgSzXB8LDH/9aW4rwsEYWZAWER2duzTKxdtYjtSHgD4Es1wfCwx//WluK8LBGFmQFhEdnbs0ysXbWI7Uh4A+BLNcHwsMf/1pbivCwRhZkBYRHZ27NMrF21iO1IeAPAevro6ur6/C+ffu6Z8yY4c8osTQVgQMHDsipp546OjY2NrVdBeKgHSF/f58iDqJ5Y5KIWE8g/mKxshwuVrgoXDMC1tdHb2/vrwYHB+edf/75NUMV/nBfeOEF6e/v3zU8PPzxdqMlDtoR8vf3KeIA4dHGvdYTq7/hguUQsCZgfX1Mnjx57fLly7++bt26k617o4LTBFauXPnO+vXrv3v06NFV7QwlDtoR8vf3KeIA4YHw8DfAsbxyAtbCQ0Tmdnd3v/b22293sd1Suf9yM0DT66eddtrY6OjomSKyO0XDxEEKSL4VSRkHCA+Eh2+hjb0OEcgiPGT69OkP9ff3L3nsscemOTQWTOmAwNVXX31ocHBw88GDB7+SthniIC0pf8qljAOEB8LDn6DGUucIZBIeOgrd41+xYsW8VavaZuWdGzQGTSSwdu1aGRgYSHW2I8mOOAgnmiziAOGB8Agn8BlJ6QQyCw8ROb23t3fb4sWLZw8MDExj26V033XcoabVV6xYcWjLli17h4eHLxSRtzI0ShxkgOZSlQxxgPBAeLgUwtjiGYFOhEc0VE23Hzly5EtLly6ddMkll5w8f/58QYS4GwW6yOzcuVOeeeaZdzZt2nRsypQpj9psrzQbGXHgrs8bWdZhHCA8EB5+BTzWOkWgY+FxfDRzJ0+evGTmzJn9IyMjc8bGxrqdGiXGjBPo6uoa7enp2bN///7Bo0ePbk55kDQtQeIgLamKy3UYBwgPhEfFEUz3PhPIS3j4zADbIZCGANfKe5QQHgiPNNcMZSDQkACTKYEBgXQEuFYQHukihSe6puZEwXoSYDKtp98ZtT0BrhWER+qoIVhSo6JgDQlwfdTQ6Qw5EwGuFYRH6sAhWFKjomANCXB91NDpDDkTAa4VhEfqwCFYUqOiYA0JcH3U0OkMORMBrhWER+rAIVhSo6JgDQlwfdTQ6Qw5EwGuFYRH6sAhWFKjomANCXB91NDpDDkTAa4VhEfqwCFYUqOiYA0JcH3U0OkMORMBrhWER+rAIVhSo6JgDQlwfdTQ6Qw5EwGuFYRH6sAhWFKjomANCXB91NDpDDkTAa4VhEfqwCFYUqOiYA0JcH3U0OkMORMBrhWER+rAIVhSo6JgDQlwfdTQ6Qw5EwGuFYRH6sAhWFKjomANCXB91NDpDDkTAa4VhEfqwCFYUqOiYA0JcH3U0OkMORMBrhWER+rAIVhSo6JgDQlwfdTQ6Qw5EwGuFYRH6sAhWFKjomANCXB91NDpDDkTAa4VhEfqwCFYUqOiYA0JcH3U0OkMORMBrhWER+rAIVhSowq64L+JyN8EPUIGBwEIFEng30Xkb4vswKO2o3V1koiwwDb2Glw8iuYCTSUOuD4KDC+ahkCtCCA82ribBadW10PTwRIHCA+uBAhAIB8CCA+ERz6RFHgrCA+ER+AhzvAgUBoBhAfCo7Rg87kjhAfCw+f4xXYIuEQA4YHwcCkenbUF4YHwcDY4MQwCnhFAeCA8PAvZasxFeCA8qok8eoVAeAQQHgiP8KK6gBEhPBAeBYQVTUKglgQQHgiPWga+7aARHggP25ihPAQg0GLe4DkezcODBYdLRwkQBwgPrgQIQCAfAmQ8yHjkE0mBt4LwQHgEHuIMDwKlEUB4IDxKCzafO0J4IDx8jl9sh4BLBBAeCA+X4tFZWxAeCA9ngxPDIOAZAYQHwsOzkK3GXIQHwqOayKNXCIRHAOGB8AgvqgsYEcID4VFAWNEkBGpJAOGB8Khl4NsOGuGB8LCNGcpDAAIt5g1up20eHiw4XDpKgDhAeHAlQAAC+RAg40HGI59ICrwVhAfCI/AQZ3gQKI0AwgPhUVqw+dwRwgPh4XP8YjsEXCKA8EB4uBSPztqC8EB4OBucGAYBzwggPBAenoVsNeYiPBAe1UQevUIgPAIID4RHeFFdwIgQHgiPAsKKJiFQSwIIj4Tb/1FE1ojIzSKyPnY3w3IR+ZaIrBaRf65lqNRr0MRBOn8jyNJxohQEIPAeAYRHIhp6RGRYRA6KyJiInCoi+0SkS0Smi0iviIwQQcETIA7SuRjhkY4TpSAAAYRHyxjQzMZNIjLluMjQReiIiNwrIt8kempDgDho72qER3tGlIAABCYSIOPRICJUaPxeRN4X+92fReQDZDtqdf0QB+3djfBoz4gSEIAAwiNVDOi3Xd3nP1lE3jl+roNsRyp0QRUiDlq7E+ERVLgzGAiUQoCMRxPM8W+7ZDtKiUUnOyEOEB5OBiZGQcBjAgiPFs4ze/yc7fA4wnMwnThoDpGMRw4BRhMQqBkBhEcLh+u33UdF5Euc7ajZZTFxuMQBwqPWFwCDh0DOBHIRHnMnT568ZObMmf0jIyNzxsbGunM2kuZyItDV1TXa09OzZ//+/YNHjx7dLCK7c2pamyEOcoRZZFM5xgEZjyIdRdsQCJNAZ8Jj+vTpDx05cuRLS5cunXTJJZecPH/+fJkxY0aYqAIY1YEDB2Tnzp3yzDPPvLNp06ZjU6ZMefTgwYNf6XRoxEGnBMutn2McIDzKdR29QSAEApmFx+m9vb3bFi9ePHtgYGAaYsO/WNDFZ8WKFYe2bNmyd3h4+EIReSvDKIiDDNBcqtJhHCA8XHImtkDADwLZhEdvb++vVqxYMW/VqlV+DBMrmxJYu3atDAwM7BoeHv64LSbiwJaYu+UzxgHCw12XYhkEXCVgLzw0rd7f37/ksccem+bqqLDLjsDVV199aHBwcLPNtgtxYMfYh9IZ4gDh4YNjsRECbhGwFh5zu7u7X3v77be72F5xy5OdWKPp9tNOO21sdHT0zJQHTomDToA7WjdDHCA8HPUlZkHAYQJ2wmPy5Mlrly9f/vV169bpEz35BERg5cqV76xfv/67R48ebbt/RhwE5PjEUGziIPb25nCBMDIIQCBvAnbCQ/f0BwcH551//vl5G0J7FRN44YUXpL+/P9VZD+KgYmcV2L1NHCA8CnQETUMgXAJ2wqOrq+vwvn37utlmCS8iNM1+6qmnjo6NjU1tNzrioB0hf39vEwcID3/9jOUQqJCAnfDQiebYMa3DJ0QCkyZN0mFF/2vzIQ7aEfL49zZxkDJePKaB6RCAQM4EEB45A/W6OZsFBwHqtatbGm8TBwiPcOOAkUGgIAIIj4LAetmszYKD8PDSxamMtokDhEcqpBSCAATeI4DwIBreI2Cz4CA8wo0cmzhAeIQbB4wMAgURQHgUBNbLZm0WHISHly5OZbRNHCA8UiGlEAQgQMaDGGhEwGbBQXiEG0M2cYDwCDcOGBkECiJAxqMgsF42a7PgIDy8dHEqo23iAOGRCimFIAABMh7EABkPYqAZAYQHsQEBCBRIgIxHgXC9a9pmwSHj4Z17UxtsEwdkPFJjpSAEIPAXAggPIuE9AjYLThrhMTw8LFdccYWsXr1aFixYMN6R+fnXv/51eeqpp2TJkiUTft+pTw4fPiw33nhj1K5+Nm/eLPfdd59Mndr2oayddh1EfZs4QHgE4XIGAYEyCSA8yqTtel82C04a4aHjvfPOO6Nhq/gwnx07dkQ/f+KJJ6S3tzd3LHHhERc8uXcUaIM2cYDwCDQIGBYEiiOA8CiOrX8t2yw4aYVHI5FhxMhNN900npk466yzor8//PDDEbjHH388ypZo/XjGQsXKG2+8EQkZIzBMnWuvvTbKbOgnmfHQ8tdcc41s3bp13DGLFi2KxM+0adMm9G3aaZQhUdtvvfXWCTYaO/Q9J08++aRs27YtyuSYf2/fvl2S49OfqSjavXu33HDDDVF7yr+RGIv3aeolxx5v7/bbb5dTTjllnKX5XdqItIkDhEdaqpSDAASOE0B4EArvEbBZcNIKj+R2i/572bJloovj7NmzxwXCnj17xgWFlrnlllvkrrvukl27djUVHvFsSrwfs8i32mqJC5hm7SSzJVrnxRdfjMTN3r175fLLL5eNGzeOi4pZs2ZNEETm3ybz8+abb0Z1X331Vbn++usjkaIf006j7EzcThUpym3Dhg3y4IMPSqv2vva1r0XCTcdmyqXdarKJA4QHMwgEIGBJAOFhCSzo4jYLTlrhYRbdM84444QMRjwzERceccitMh7xcvHtlXbCIy4gkotxs20a8/PzzjsvGkd8XJdeemkkoMzvkmWTbcZ/f/bZZ0cZj/vvv1/mzp07Ib7a2WLOxrRqL8kvTQDbxAHCIw1RykAAAjECCA/CodiMh7ZuFj/NYGgmI7lAmwW00ZZCK+GhGQDNFuzcuXN8EPFtjUYZj0ZbP83aiWcgklsbpsM1a9ZIfMtI6yQFQ6NDtjpWFWMqPEwWI3nepd3h3Pih3WbtITy4wiEAAccIIDwcc0il5th807XJeJhzDNddd5388Ic/jLYKdJFt9o0+vh0zNDQ0YasleT6kkYhplvHQ7ZHkIt8uO2Ec0urAarOMRjIj0SxD0Ux4ZM14xNtDeFR6SdE5BCBwIoFihYf5FmZS0z56wPYOiTTl4wtrMr1eJaOihEc8W6AZAnOHS5zV888/H2UANFaSZzzMeYi+vr7o95pVMFkGIzx0gV24cKE0y3gsXbpU9Pbd5JZGUnjE22l1xuPQoUORLSomzFZLM6FhtmWancloJjxMPf1TmRkBp2PQw6tp2kN4VHlF0TcEINCAAMKjXVikERLt2kj+vm7CQ8ev5yquvPLKSBiYBT3Odt68edFCbu46iZczWzB6F4r+d/DgwWghNiJB21dBox8VL3EhoD/Tu2Iuu+wyufDCCye4Yv78+dEBT82qqGhJttNIMMe3g4yIapfx0Hbb3YViskDJWGlWL217CA/bq5PyEIBAwQTKEx46Aerkqh9Nt5tJX7/xm71sXXT0VsY//OEPUUpcP8lbDXWRMPv65nbIeNo+eTtmfNHTv8f7TcI1i2O8XPzOi+Q34PjCl7w1s9G5hfh5ALXT2GL6MLYnb40899xzZeXKlVF5vYtCFz9lFc8exG1R+21vodQ6RWU8Cg5ims+ZgE0ccLg0Z/g0B4HwCZQrPJKpcHO7Yfx2Rl3877nnnoa3GiYP28VvFXz66aeb3o4Zf1hVowdaqZ+Thw4bPWsi+fRNc1uoiie1Wz+Nvm2bZ0vcdttt0bMkdMsgXjduk9qRvNUyfmvk4ODgOBtzN4QRaGYbodVdG61i2mbBsTnjEf51FNYIbeIA4RGW7xkNBEogUK7wiAsA83wCPXAYX4Tj2xDJBTUpDuLPNXjuuefGhUcrcPHnIqQpl7xjwdRptl2S5nHd8brm3IK5QyFeX38Xv9Uybnur7Zos6XUyHiVcbp50gfDwxFGYCQE/CZQrPBo9gVL33uOLa1J4JE/om714wzu+dZLmCY9aL75FYdppdLtko1sl436O34bZ6KmZmiGJb9+Yp3E2Eh7xJ2pqH1o2eatlK+ERH7vWb/X0zWaxarPgkPHw84pPY7VNHJDxSEOUMhCAQIxA9cKjXcYjy62B8YX9lVdeGX/apD4sqlnGI7k9Yco1y3gkw6hd+eRBSpPlSW67JIVNfPzNhIeee4lnk8h4cJF3QgDh0Qk96kIAAm0IVC88dIuh1RmP+MKbPOOhC7FmUfRPfYR0o9sxdQvGPOba3AKpmYj4S8sUUlx4xMs1Ex7xbR493NrojEf8aZwqPNKc8TBZFD1EqqLEVniY947omGzfyGqz4JDxCHdysYkDMh7hxgEjg0BBBNwQHvG7WtatWycvvfTS+F0tyWccxLc3mt0Zo7DMXR3xtvXOE32ew7PPPnvCotys3N133y0333xzw1e3x7dRGm21NHvxmcl+/PznP48OiibvajFbMo3EjXlBWqN3npg7Ze64444JD+pKGzw2C46vwqOoN+MmfdWIeRG3Zqf1rU05mzhAeNiQpSwEICAixQqPLIiLWhiy2FK3OjYLDsLDPjoQHvbMqAEBCARHoHrhkTzU2eo5G8Hhd2xArgqP5KFhk0lK89p5RRzPkumBYRW35vXz8eefJLNWerv3rbfeGnkpfiA5mR3TtvScTXJbTB+Ypp/k81rMM17idqV9Jk0ZIWMTB2Q8yvAIfUAgKALVC4+gcHo+GJsFp6yMR6PXwt97773RuaDka+cVv3miafIx67rYm9fEG+GhYsHcUWW2u7RNc65H20u+xj75QDljn96dZYTHrl27Jhz2bfRMGPOkVnMbdZpn0iRfIldUuNnEAcKjKC/QLgSCJYDwCNa1GQZms+CUITzavSTNvKcleeg4+SyUeCYi+ewXc/BY73gydwOZcz3x9s1dSIq10btVWp3xaHTHk7YTvxMpyzNpMrg4VRWbOEB4pEJKIQhA4D0CCA+i4T0CNgtOGcKj2Wvhm712vtGzUObMmdNygTfbIYaCbnk88sgjUR2zJZJ8W25cMJh6ceFg7iwyj8A3WzXxO6T0Z7bPpCkrVm3iAOFRllfoBwLBEEB4BOPKHAZis+CUITzaZTwaCYPk236TmYg0mYVGwsYm4xG/hTv+7Jik8Ig/UK+Z+6p4oaBNHCA8crjwaAIC9SKA8KiXv1uP1mbBKUN4mO0I/TP+Wvjvfve7smnTpgm3OMefBRN/Foo5iGq2TbRcozMeKljMOYvkLdStHnFvnv+it2l/+9vfjl6E2OzZMXHhkTzjkeaZNJzx4GqFAAQCIIDwCMCJuQ3BReHR6PXvRkyYjIcCSJYzz0LR38XvHtHnxOi/77rrLtGFPM0bhpNZh0Z3o8TvatE+9SCrbv3Enx2TFDS2z6TJzdFtGrKJAzIeZXmFfiAQDAGERzCuzGEgNgtOWRmPHIZFE5YEbOIA4WEJl+IQgADCgxh4j4DNgoPwCDdybOIA4RFuHDAyCBREAOFREFgvm7VZcBAeXro4ldE2cYDwSIWUQhCAwHsEEB5EAxkPYmAiAYQHEQEBCBRIAOFRIFzvmrZZcMh4eOfe1AbbxAEZj9RYKQgBCPyFAMKDSCDjQQyQ8SAGIACB0gggPEpD7UFHNt90yXh44NCMJtrEARmPjJCpBoH6EkB41Nf3J47cZsFBeIQbOTZxgPAINw4YGQQKIoDwKAisl83aLDgIDy9dnMpomzhAeKRCSiEIQOA9AggPooEzHsQAZzyIAQhAoDQCdsKjq6vr8L59+7pnzJhRmoV0VA6BAwcOyKmnnjo6NjY2tV2PxEE7Qv7+3iYOzOl0f0eL5RCAQAUE7IRHb2/vrwYHB+edf/75FdhKl0USeOGFF6S/v3/X8PDwx9v1Qxy0I+Tv723iAOHhr5+xHAIVErATHpMnT167fPnyr69bt+7kCo2m6wIIrFy58p3169d/9+jRo6vaNU8ctCPk7+9t4gDh4a+fsRwCFRKwEx4iMre7u/u1t99+u4vtlgrdlnPXml4/7bTTxkZHR8/Ul7mmaJ44SAHJtyIZ4iCaQHwbJ/ZCAAKVErAWHjJ9+vSH+vv7lzz22GPTKjWdznMjcPXVVx8aHBzcfPDgwa+kbZQ4SEvKn3IZ4gDh4Y97sRQCrhCwFx5que7xr1ixYt6qVW2z8q4MFDuaEFi7dq0MDAykOtuRbII4CCesMsYBwiOcEGAkECiLQDbhISKn9/b2blu8ePHsgYGBaWy7lOWv/PrRtPqKFSsObdmyZe/w8PCFIvJWhtaJgwzQXKrSYRwgPFxyJrZAwA8CmYVHNDxNtx85cuRLS5cunXTJJZecPH/+fEGEuOt5XWR27twpzzzzzDubNm06NmXKlEdttleajYw4cNfnjSzLMQ4QHn65Hmsh4AKBzoTH8RHMnTx58pKZM2f2j4yMzBkbG+t2YWTYcCKBrq6u0Z6enj379+8fPHr06OaUB0nToiQO0pKquFyOcYDwqNiXdA8BDwnkIjw8HHdqk5lYU6MKuiBx0Ni9cAk67BkcBAohgPBog5WJtZC4865R4gDh4V3QYjAEHCWA8EB4OBqabpmF8EB4uBWRWAMBfwkgPBAe/kZviZYjPBAeJYYbXUEgaAIID4RH0AGe1+AQHgiPvGKJdiBQdwIID4RH3a+BVONHeCA8UgUKhSAAgbYEEB4Ij7ZBQgERhAfCg+sAAhDIhwDCA+GRTyQF3grCA+EReIgzPAiURgDhgfAoLdh87gjhgfDwOX6xHQIuEUB4IDxcikdnbUF4IDycDU4Mg4BnBBAeCA/PQrYacxEeCI9qIo9eIRAeAYQHwiO8qC5gRAgPhEcBYUWTEKglAYQHwqOWgW87aIQHwsM2ZigPAQi0mDcmCbcLNgsQFhwuHSVAHCA8uBIgAIF8CJDxIOORTyQF3grCA+EReIgzPAiURgDhgfAoLdh87gjhgfDwOX6xHQIuEUB4IDxcikdnbUF4IDycDU4Mg4BnBBAeCA/PQrYacxEeCI9qIo9eIRAeAYQHwiO8qC5gRAgPhEcBYUWTEKglAYQHwqOWgW87aIQHwsM2ZigPAQi0mDe4nbZ5eLDgcOkoAeIA4cGVAAEI5EOAjAcZj3wiKfBWEB4Ij8BDnOFBoDQCCA+ER2nB5nNHCA+Eh8/xi+0QcIkAwgPh4VI8OmsLwgPh4WxwYhgEPCOA8EB4eBay1ZiL8EB4VBN59AqB8AggPBAe4UV1ASNCeCA8CggrmoRALQkgPBAetQx820EjPBAetjFDeQhAoMW8we20zcODBYdLRwkQBwgPrgQIQCAfAmQ8yHjkE0mBt4LwQHgEHuIMDwKlEUB4IDxKCzafO0J4IDx8jl9sh4BLBBAeCA+X4tFZWxAeCA9ngxPDIOAZAYQHwsOzkK3GXIQHwqOayKNXCIRHAOGB8AgvqgsYEcID3tuhnAAAEZBJREFU4VFAWNEkBGpJAOGB8Khl4NsOGuGB8LCNGcpDAAIt5g1up20eHiw4XDpKgDhAeHAlQAAC+RAg40HGI59ICrwVhAfCI/AQZ3gQKI0AwgPhUVqw+dwRwgPh4XP8YjsEXCKA8EB4uBSPztqC8EB4OBucGAYBzwggPBAenoVsNeYiPBAe1UQevUIgPAIID4RHeFFdwIgQHgiPAsKKJiFQSwIID4RHLQPfdtAID4SHbcxQHgIQaDFvcDtt8/BgweHSUQLEAcKDKwECEMiHABkPMh75RFLgrSA8EB6BhzjDg0BpBBAeCI/Sgs3njhAeCA+f4xfbIeASAYRHG2/8m4j8jUseq8CWAyIyo4J+Xery30Xkb10yyBFbEGSOOAIzIOARAYSHR86qylQWl6rIu98vseG+j7AQAq4RQHi45hEH7WFxcdApjphEbDjiCMyAgEcEEB4eOasqU1lcqiLvfr/Ehvs+wkIIuEYA4eGaRxy0h8XFQac4YhKx4YgjMAMCHhFAeHjkrKpMZXGpirz7/RIb7vsICyHgGgGEh2secdAeFhcHneKIScSGI47ADAh4RADh4ZGzqjKVxaUq8u73S2y47yMshIBrBBAernnEQXtYXBx0iiMmERuOOAIzIOARAYSHR86qylQWl6rIu98vseG+j7AQAq4RQHi45hEH7WFxcdApjphEbDjiCMyAgEcEEB4eOasqU1lcqiLvfr/Ehvs+wkIIuEYA4eGaRxy0h8XFQac4YhKx4YgjMAMCHhFAeHjkrKpMZXGpirz7/RIb7vsICyHgGgGEh2secdAeFhcHneKIScSGI47ADAh4RADh4ZGzqjKVxaUq8u73S2y47yMshIBrBBAernnEQXtYXBx0iiMmERuOOAIzIOARAYSHR86qylQWl6rIu98vseG+j7AQAq4RQHi45hEH7WFxcdApjphEbDjiCMyAgEcEEB4eOasqU1lcqiLvfr/Ehvs+wkIIuEYA4eGaRxy0h8XFQac4YhKx4YgjMAMCHhFAeHjkrKpMZXGpirz7/RIb7vsICyHgGgGEh2secdAeFhcHneKIScSGI47ADAh4RADh4ZGzqjKVxaUq8u73S2y47yMshIBrBBAernnEQXtYXBx0iiMmERuOOAIzIOARAYSHR86qylQWl6rIu98vseG+j7AQAq4RQHi45hEH7WFxcdApjphEbDjiCMyAgEcEEB4eOasqU1lcqiLvfr/Ehvs+wkIIuEYA4eGaRxy0h8XFQac4YhKx4YgjMAMCHhFAeHjkrKpMZXGpirz7/RIb7vsICyHgGgGEh2secdAeFhcHneKIScSGI47ADAh4RADh4ZGzqjKVxaUq8u73S2y47yMshIBrBBAernnEQXtYXBx0iiMmERuOOAIzIOARAYSHR86qylQWl6rIu98vseG+j7AQAq4RQHi45hEH7WFxcdApjphEbDjiCMyAgEcEEB4eOasqU1lcqiLvfr/Ehvs+wkIIuEYA4eGaRxy0h8XFQac4YhKx4YgjMAMCHhFAeHjkrLJM/T9F5H8TkR+JyKUiYhaXp0Xk8yLyf4nI/16WMfTjNAGEh9PuwTgIOEkA4eGkW6o16jQReeu44NAAmSwiR0Vk0vH/TheRt6s1kd4dIYDwcMQRmAEBjwggPDxyVpmm/r8i8unjHcYXl5+LyP9cpiH05TQBhIfT7sE4CDhJAOHhpFuqN8pkPZKWkO2o3jcuWYDwcMkb2AIBPwggPPzwUyVW/j+J7IZmQf6XSiyhU1cJIDxc9Qx2QcBdAggPd31TuWWa3XgzZsWs42c/KjcMA5whgPBwxhUYAgFvCCA8vHFVNYaarAfZjmr4u94rwsN1D2EfBNwjgPBwzydOWaRZj5dE5FyyHU75xRVjEB6ueAI7IOAPAYSHP74q3NLZIvKZmTNnXjh58uRPjo6Onj46Ojr93XffPemkk056t7u7+2B3d/dbR48e/Y/9+/dvE5Gficjewq2iA5cJIDxc9g62QcBNAggPN/1SqlVf7uvr++rhw4fnXXTRRe985jOf6TnzzDPlwx/+sPT19cn73vc++fOf/yxDQ0Py29/+Vl577TX52c9+NvLTn/705KlTp+4aGhp6QET+tVSL6cwVAggPVzyBHRDwhwDCwx9f5W7pV3p6eu4855xzTv7qV796yuc+9znrDn784x/LAw888IeXX375nZGRkdUi8pB1I1TwmQDCw2fvYTsEqiGA8KiGe6W9frKvr+9f586dO+fb3/72jIULF3ZszPbt2+Ub3/jGgd27d+8ZGhr6soj8R8eN0oAPBBAePngJGyHgFgGEh1v+KNwaFQWPbNy4Ua677rrcO3vwwQfl+uuv13avYfsld7wuNojwcNEr2AQBtwkgPNz2T67W3XL66af/049+9KOec8/Vm1SK+bz00kvy+c9/fuStt976jojcVUwvtOoIAYSHI47ADAh4RADh4ZGzOjH1lo997GNfe/7550+ZNUufA1bs580335QLLrjgD7/+9a/vQXwUy7ri1hEeFTuA7iHgIQGEh4dOszX5y6effvrASy+91FOG6DDGqfg499xzNfOxgm0XW5d5Ux7h4Y2rMBQCzhBAeDjjimIM+aSIvPqLX/xCRUAxPbRoVbddPvWpT2mJszhwWjr+MjpEeJRBmT4gEBYBhEdY/pw4mr6+vv+44447PlHEQdK03PTA6W233fbLoaEhFUF8wiKA8AjLn4wGAmUQQHiUQbmiPr6yYMGCb23fvn2GTf87duyQH/zgB7J161b53e9+Fz08TB8i9qEPfUgWLVokX/jCF2TBggU2TcrChQsP7Nix45s858MKmw+FER4+eAkbIeAWAYSHW/7Iz5qenp7f/+QnP+lL+5yOnTt3yrJly0T/HBkZaWpIT0+PzJ8/XzZs2BD9meajz/n47Gc/OzQyMvKBNOUp4w0BhIc3rsJQCDhDAOHhjCvyNeTLF1xwwbpt27adkqbZ73//+3LVVVelKTqhzPe+9z354he/mKrehRde+Ifnn39+JQdNU+HypRDCwxdPYScE3CGA8HDHF/lZomc7/uVf/uUTaR6DrqJj6dKlcujQIWsDpk2bJps2bUolPvTx6v/wD//AWQ9ryk5XQHg47R6Mg4CTBBAeTrqlM6Nmv//979998ODB7nbN6LbKJz7xiXbF2v7+l7/8Zaptl+nTp4/+6U9/mstbbdsi9aUAwsMXT2EnBNwhgPBwxxe5WfLlz3/+8wNPP/10T7sWzzvvPNHzF51+9BzJiy++2LaZSy+9dORHP/oRz/VoS8qbAggPb1yFoRBwhgDCwxlX5GTIzJkzn1i7du0X2t1Cq3ev/N3f/V3Lg6RpTdIDp88++2zbu1301tpVq1b9YP/+/VekbZtyThNAeDjtHoyDgJMEEB5OuqUDo3p7e/+/H//4xx9vdzeLvsxNhUBeHxU6+vK5Vh/Nrnzuc5/71fDw8P+UV7+0UykBhEel+OkcAl4SQHh46bYWRr///e/X19O3fSfLRz7yEfnP//zP3Ib/13/91/L666+3bE8foz537tw//OlPf7J6tkhuRtJQ3gQQHnkTpT0IhE8A4RGaj0866aQjf/rTn07Sh361+nR3d0cPB8vro/2Njo62bE77e//73//uu+++OyWvfmmnUgIIj0rx0zkEvCSA8PDSba2NPnbsmPq19WfSpEntilj/3qLf/Du3tpYKORBAeOQAkSYgUDMCCI/QHE7GIzSPOj0ehIfT7sE4CDhJAOHhpFs6MIozHh3Ao6otAYSHLTHKQwACCI/QYoC7WkLzqNPjQXg47R6Mg4CTBBAeTrqlA6N4jkcH8KhqSwDhYUuM8hCAAMIjwBjgyaUBOtXRISE8HHUMZkHAYQIID4edk9U03tWSlRz1bAkgPGyJUR4CEEB4hBgDvJ02RK86OSaEh5NuwSgIOE0A4eG0e7Ib9+ULLrhg3bZt205J08T3v/99ueqqq9IUnVDme9/7nnzxi19MVe/CCy/8w/PPP79SRP41VQUK+UAA4eGDl7ARAm4RQHi45Y/8rOnp6fn9T37yk75272wxPe7cuVOWLVsm+ufIyEhTQ/SFcPPnz5cNGzZEf6b56DtaPvvZzw6NjIx8IE15ynhDAOHhjaswFALOEEB4OOOK/A35yoIFC761fft2q/ei6Ftrf/CDH8jWrVvld7/7XfRYdX0c+oc+9CFZtGiRfOELX2j7FtrkUBYuXHhgx44d3xSRh/IfJi1WSADhUSF8uoaApwQQHp46LpXZetbjjjvu+IS+Obaqj74B97bbbvvl0NDQJ6uygX4LI4DwKAwtDUMgWAIIj2Bd+5eB6WL/6i9+8Qs599xzSx/qSy+9JJ/61Ke037NE5D9KN4AOiyaA8CiaMO1DIDwCCI/wfHrCiL58+umnD7z00ks9s2bNKm24b775poqdkbfeemsFB0pLw152RwiPsonTHwT8J4Dw8N+HqUZwy8c+9rGvPf/886eUIT5UdFxwwQV/+PWvf32PiNyVykIK+UgA4eGj17AZAtUSQHhUy7/U3m85/fTT/+lHP/pRT5HbLrq98vnPf14zHd9BdJTq3yo6Q3hUQZ0+IeA3AYSH3/6ztv7LIvLIxo0bpYgDp3qQ9Prrr1ejrmF7xdo3PlZAePjoNWyGQLUEEB7V8q+k90/29fX969y5c+d8+9vfnpH2OR+tLNXndHzjG984sHv37j1DQ0MqbjhIWolrS+8U4VE6cjqEgPcEEB7euzD7AL7S09Nz5znnnHPyV7/61VM+97nPWbf04x//WB544IE/vPzyy++MjIys5jkd1gh9r4Dw8N2D2A+B8gkgPMpn7lyPX+7r6/vq4cOH51100UXvfOYzn+k588wz5cMf/rD09fVFDw/Th4gNDQ3Jb3/7W3nttdfkZz/72chPf/rTk6dOnbpraGjoAbZVnPNpWQYhPMoiTT8QCIcAwiMcX3Y8ktki8pmZM2deOHny5E+Ojo6ePjo6Ov3dd9896aSTTnq3u7v7YHd391tHjx79j/37928TkZ+JyN6Oe6UBnwkgPHz2HrZDoBoCCI9quNMrBIIggPAIwo0MAgKlEkB4lIqbziAQFgGER1j+ZDQQKIMAwqMMyvQBgUAJIDwCdSzDgkCBBBAeBcKlaQiETgDhEbqHGR8E8ieA8MifKS1CoDYEEB61cTUDhUBuBBAeuaGkIQjUjwDCo34+Z8QQ6JQAwqNTgtSHQI0JIDxq7HyGDoGMBBAeGcFRDQIQEEF4EAUQgIAtAYSHLTHKQwAC4wQQHgQDBCBgSwDhYUuM8hCAAMKDGIAABDITQHhkRkdFCECAjAcxAAEI2BJAeNgSozwEIEDGgxiAAAQyE0B4ZEZHRQhAgIwHMQABCNgSQHjYEqM8BCBAxoMYgAAEMhNAeGRGR0UIQICMBzEAAQjYEkB42BKjPAQgQMaDGIAABDITQHhkRkdFCECAjAcxAAEI2BJAeNgSozwEIEDGgxiAAAQyE0B4ZEZHRQhAgIwHMQABCNgSQHjYEqM8BCBAxoMYgAAEMhNAeGRGR0UIQICMBzEAAQjYEkB42BKjPAQgQMaDGIAABDITQHhkRkdFCECAjAcxAAEI2BJAeNgSozwEIEDGgxiAAAQyE0B4ZEZHRQhAgIwHMQABCNgSQHjYEqM8BCBAxoMYgAAEMhNAeGRGR0UIQICMBzEAAQjYEkB42BKjPAQgQMaDGIAABDITQHhkRkdFCECAjAcxAAEI2BJAeNgSozwEIEDGgxiAAAQyE0B4ZEZHRQhAgIwHMQABCNgSQHjYEqM8BCBAxoMYgAAEMhNAeGRGR0UIQICMBzEAAQjYEkB42BKjPAQgQMaDGIAABDITQHhkRkdFCECAjAcxAAEI2BJAeNgSozwEIEDGgxiAAAQyE0B4ZEZHRQhAgIwHMQABCNgSQHjYEqM8BCBAxoMYgAAEMhNAeGRGR0UIQICMBzEAAQjYEhgXHv8mIn9jW5vyEIBArQkcEJEZtSbA4CEAAVsC/y4if/v/A67Y8pf4UcRLAAAADmVYSWZNTQAqAAAACAAAAAAAAADSU5MAAAAASUVORK5CYII=;" vertex="1" parent="1">
          <mxGeometry x="40" y="40" width="542" height="711" as="geometry" />
        </mxCell>
      </root>
    </mxGraphModel>
  </diagram>
</mxfile>
